<?xml version="1.0" encoding="iso-8859-1"?>
<!DOCTYPE svg PUBLIC "-//W3C//DTD SVG 1.0//EN" "http://www.w3.org/TR/2001/REC-SVG-20010904/DTD/svg10.dtd">
<!-- Uploaded to: SVG Repo, www.svgrepo.com, Generator: SVG Repo Mixer Tools -->
<svg version="1.0" xmlns="http://www.w3.org/2000/svg" xmlns:xlink="http://www.w3.org/1999/xlink" width="800px"
	 height="800px" viewBox="0 0 24 24" xml:space="preserve">
<g id="Guides">
	<!-- Other groups omitted for brevity -->
</g>
<g id="Free_Icons">
	<g>
		<polyline style="fill:none;stroke:rgb(69, 10, 10);stroke-linecap:round;stroke-linejoin:round;stroke-miterlimit:10;" points="21.5,23.5 
			21.5,17.5 14.5,15.5 14.5,18.5 8.5,18.5 8.5,23.5 		"/>
		<polyline style="fill:none;stroke:rgb(69, 10, 10);stroke-linecap:round;stroke-linejoin:round;stroke-miterlimit:10;" points="2.5,23.5 
			2.5,17.5 9.5,15.5 9.5,13.572 		"/>
		
			<line style="fill:none;stroke:rgb(69, 10, 10);stroke-linecap:round;stroke-linejoin:round;stroke-miterlimit:10;" x1="11.5" y1="22.5" x2="12" y2="22.5"/>
		
			<line style="fill:none;stroke:rgb(69, 10, 10);stroke-linecap:round;stroke-linejoin:round;stroke-miterlimit:10;" x1="11.5" y1="20.5" x2="12" y2="20.5"/>
		<polygon style="fill:none;stroke:rgb(69, 10, 10);stroke-linecap:round;stroke-linejoin:round;stroke-miterlimit:10;" points="8.5,7.5 
			15.5,7.5 15.5,13 12,15 8.5,13 		"/>
		<polyline style="fill:none;stroke:rgb(69, 10, 10);stroke-linecap:round;stroke-linejoin:round;stroke-miterlimit:10;" points="8.5,7.5 
			8.5,0.5 10,1.5 12,0.5 14,1.5 15.5,0.5 15.5,7.5 		"/>
		<polyline style="fill:none;stroke:rgb(69, 10, 10);stroke-linecap:round;stroke-linejoin:round;stroke-miterlimit:10;" points="8.5,8.5 
			6.5,8.5 6.5,10 8.5,11.5 		"/>
		<polyline style="fill:none;stroke:rgb(69, 10, 10);stroke-linecap:round;stroke-linejoin:round;stroke-miterlimit:10;" points="15.5,8.5 
			17.5,8.5 17.5,10 15.5,11.5 		"/>
		
			<line style="fill:none;stroke:rgb(69, 10, 10);stroke-linecap:round;stroke-linejoin:round;stroke-miterlimit:10;" x1="10" y1="7.5" x2="10" y2="5.5"/>
		
			<line style="fill:none;stroke:rgb(69, 10, 10);stroke-linecap:round;stroke-linejoin:round;stroke-miterlimit:10;" x1="14" y1="7.5" x2="14" y2="5.5"/>
		
			<line style="fill:none;stroke:rgb(69, 10, 10);stroke-linecap:round;stroke-linejoin:round;stroke-miterlimit:10;" x1="12" y1="7.5" x2="12" y2="5.5"/>
		
			<line style="fill:none;stroke:rgb(69, 10, 10);stroke-linecap:round;stroke-linejoin:round;stroke-miterlimit:10;" x1="14.5" y1="15.5" x2="14.5" y2="13.571"/>
		
			<line style="fill:none;stroke:rgb(69, 10, 10);stroke-linecap:round;stroke-linejoin:round;stroke-miterlimit:10;" x1="10.5" y1="9.5" x2="10.5" y2="10"/>
		
			<line style="fill:none;stroke:rgb(69, 10, 10);stroke-linecap:round;stroke-linejoin:round;stroke-miterlimit:10;" x1="13.5" y1="9.5" x2="13.5" y2="10"/>
	</g>
</g>
</svg>
